<svg xmlns="http://www.w3.org/2000/svg" width="860" height="440" viewBox="0 0 860 440">
<rect width="100%" height="100%" fill="white"/>
<text x="430.0" y="26" font-size="18" text-anchor="middle" font-weight="bold" fill="#111" font-family="Helvetica, Arial, sans-serif">平均レイテンシと平均コスト</text>
<line x1="80" y1="380" x2="820" y2="380" stroke="#333"/>
<line x1="80" y1="380" x2="80" y2="45" stroke="#333"/>
<line x1="80.0" y1="380" x2="80.0" y2="385" stroke="#333"/>
<text x="80.0" y="400" font-size="11" text-anchor="middle" font-weight="normal" fill="#555" font-family="Helvetica, Arial, sans-serif">0.0s</text>
<line x1="228.0" y1="380" x2="228.0" y2="385" stroke="#333"/>
<text x="228.0" y="400" font-size="11" text-anchor="middle" font-weight="normal" fill="#555" font-family="Helvetica, Arial, sans-serif">2.5s</text>
<line x1="376.0" y1="380" x2="376.0" y2="385" stroke="#333"/>
<text x="376.0" y="400" font-size="11" text-anchor="middle" font-weight="normal" fill="#555" font-family="Helvetica, Arial, sans-serif">5.1s</text>
<line x1="524.0" y1="380" x2="524.0" y2="385" stroke="#333"/>
<text x="524.0" y="400" font-size="11" text-anchor="middle" font-weight="normal" fill="#555" font-family="Helvetica, Arial, sans-serif">7.6s</text>
<line x1="672.0" y1="380" x2="672.0" y2="385" stroke="#333"/>
<text x="672.0" y="400" font-size="11" text-anchor="middle" font-weight="normal" fill="#555" font-family="Helvetica, Arial, sans-serif">10.2s</text>
<line x1="820.0" y1="380" x2="820.0" y2="385" stroke="#333"/>
<text x="820.0" y="400" font-size="11" text-anchor="middle" font-weight="normal" fill="#555" font-family="Helvetica, Arial, sans-serif">12.7s</text>
<line x1="75" y1="380.0" x2="80" y2="380.0" stroke="#333"/>
<text x="70" y="384.0" font-size="11" text-anchor="end" font-weight="normal" fill="#555" font-family="Helvetica, Arial, sans-serif">$0.000</text>
<line x1="75" y1="313.0" x2="80" y2="313.0" stroke="#333"/>
<text x="70" y="317.0" font-size="11" text-anchor="end" font-weight="normal" fill="#555" font-family="Helvetica, Arial, sans-serif">$0.002</text>
<line x1="80" y1="313.0" x2="820" y2="313.0" stroke="#eee"/>
<line x1="75" y1="246.0" x2="80" y2="246.0" stroke="#333"/>
<text x="70" y="250.0" font-size="11" text-anchor="end" font-weight="normal" fill="#555" font-family="Helvetica, Arial, sans-serif">$0.003</text>
<line x1="80" y1="246.0" x2="820" y2="246.0" stroke="#eee"/>
<line x1="75" y1="179.0" x2="80" y2="179.0" stroke="#333"/>
<text x="70" y="183.0" font-size="11" text-anchor="end" font-weight="normal" fill="#555" font-family="Helvetica, Arial, sans-serif">$0.005</text>
<line x1="80" y1="179.0" x2="820" y2="179.0" stroke="#eee"/>
<line x1="75" y1="112.0" x2="80" y2="112.0" stroke="#333"/>
<text x="70" y="116.0" font-size="11" text-anchor="end" font-weight="normal" fill="#555" font-family="Helvetica, Arial, sans-serif">$0.006</text>
<line x1="80" y1="112.0" x2="820" y2="112.0" stroke="#eee"/>
<line x1="75" y1="45.0" x2="80" y2="45.0" stroke="#333"/>
<text x="70" y="49.0" font-size="11" text-anchor="end" font-weight="normal" fill="#555" font-family="Helvetica, Arial, sans-serif">$0.008</text>
<line x1="80" y1="45.0" x2="820" y2="45.0" stroke="#eee"/>
<text x="430.0" y="422" font-size="12" text-anchor="middle" font-weight="normal" fill="#111" font-family="Helvetica, Arial, sans-serif">平均レイテンシ（秒）</text>
<g transform="translate(22 220.0) rotate(-90)"><text x="0" y="0" font-size="12" text-anchor="middle" font-weight="normal" fill="#111" font-family="Helvetica, Arial, sans-serif">1画像あたり平均コスト（USD）</text></g>
<circle cx="630.3" cy="88.7" r="7" fill="#1f77b4" opacity="0.95"/>
<text x="640.3197447425587" y="80.69565217391306" font-size="12" text-anchor="start" font-weight="bold" fill="#1f77b4" font-family="Helvetica, Arial, sans-serif">gpt-5</text>
<circle cx="545.8" cy="327.2" r="7" fill="#2ca02c" opacity="0.95"/>
<text x="555.7560986900153" y="319.17073992450275" font-size="12" text-anchor="start" font-weight="bold" fill="#2ca02c" font-family="Helvetica, Arial, sans-serif">gpt-5-mini</text>
<circle cx="752.7" cy="355.1" r="7" fill="#d62728" opacity="0.95"/>
<text x="762.7272727272726" y="347.1217659446789" font-size="12" text-anchor="start" font-weight="bold" fill="#d62728" font-family="Helvetica, Arial, sans-serif">gpt-5-nano</text>
<circle cx="224.4" cy="238.2" r="7" fill="#ff7f0e" opacity="0.95"/>
<text x="234.409747857947" y="230.16645970454186" font-size="12" text-anchor="start" font-weight="bold" fill="#ff7f0e" font-family="Helvetica, Arial, sans-serif">gpt-5.2</text>
<circle cx="189.1" cy="194.3" r="7" fill="#9467bd" opacity="0.95"/>
<text x="199.06845590506464" y="186.27591256634688" font-size="12" text-anchor="start" font-weight="bold" fill="#9467bd" font-family="Helvetica, Arial, sans-serif">gpt-5.4</text>
<circle cx="164.7" cy="325.7" r="7" fill="#8c564b" opacity="0.95"/>
<text x="174.68663520652836" y="317.6679111418589" font-size="12" text-anchor="start" font-weight="bold" fill="#8c564b" font-family="Helvetica, Arial, sans-serif">gpt-5.4-mini</text>
<circle cx="198.7" cy="364.6" r="7" fill="#17becf" opacity="0.95"/>
<text x="208.69060754850497" y="356.6395206225709" font-size="12" text-anchor="start" font-weight="bold" fill="#17becf" font-family="Helvetica, Arial, sans-serif">gpt-5.4-nano</text>
</svg>