<svg xmlns="http://www.w3.org/2000/svg" width="1300" height="620" viewBox="0 0 1300 620">
<style>text{font-family:-apple-system,BlinkMacSystemFont,"Hiragino Sans",sans-serif;fill:#222} .small{font-size:11px} .axis{stroke:#666;stroke-width:1} .grid{stroke:#ddd;stroke-width:1}</style>
<text x="650.0" y="28" text-anchor="middle" font-size="20">gold set 項目別スコア</text>
<line class="grid" x1="70" y1="50.0" x2="1260" y2="50.0"/>
<text class="small" x="62" y="54.0" text-anchor="end">1.0</text>
<line class="grid" x1="70" y1="120.0" x2="1260" y2="120.0"/>
<text class="small" x="62" y="124.0" text-anchor="end">0.8</text>
<line class="grid" x1="70" y1="190.0" x2="1260" y2="190.0"/>
<text class="small" x="62" y="194.0" text-anchor="end">0.6</text>
<line class="grid" x1="70" y1="260.0" x2="1260" y2="260.0"/>
<text class="small" x="62" y="264.0" text-anchor="end">0.4</text>
<line class="grid" x1="70" y1="330.0" x2="1260" y2="330.0"/>
<text class="small" x="62" y="334.0" text-anchor="end">0.2</text>
<line class="grid" x1="70" y1="400.0" x2="1260" y2="400.0"/>
<text class="small" x="62" y="404.0" text-anchor="end">0.0</text>
<rect x="82.4" y="96.2" width="24.8" height="303.8" fill="#4c78a8" rx="2"/>
<rect x="107.2" y="63.2" width="24.8" height="336.8" fill="#f58518" rx="2"/>
<rect x="132.0" y="91.8" width="24.8" height="308.2" fill="#54a24b" rx="2"/>
<text class="small" x="119.6" y="520" text-anchor="end" transform="rotate(-35 119.6 520)">gpt-5.4</text>
<rect x="181.6" y="86.3" width="24.8" height="313.7" fill="#4c78a8" rx="2"/>
<rect x="206.4" y="80.8" width="24.8" height="319.2" fill="#f58518" rx="2"/>
<rect x="231.1" y="103.9" width="24.8" height="296.1" fill="#54a24b" rx="2"/>
<text class="small" x="218.8" y="520" text-anchor="end" transform="rotate(-35 218.8 520)">gpt-5</text>
<rect x="280.7" y="96.2" width="24.8" height="303.8" fill="#4c78a8" rx="2"/>
<rect x="305.5" y="76.4" width="24.8" height="323.6" fill="#f58518" rx="2"/>
<rect x="330.3" y="101.7" width="24.8" height="298.3" fill="#54a24b" rx="2"/>
<text class="small" x="317.9" y="520" text-anchor="end" transform="rotate(-35 317.9 520)">gpt-5.2</text>
<rect x="379.9" y="102.8" width="24.8" height="297.2" fill="#4c78a8" rx="2"/>
<rect x="404.7" y="80.8" width="24.8" height="319.2" fill="#f58518" rx="2"/>
<rect x="429.5" y="106.1" width="24.8" height="293.9" fill="#54a24b" rx="2"/>
<text class="small" x="417.1" y="520" text-anchor="end" transform="rotate(-35 417.1 520)">Qwen3.6-27B-FP8 [thinking=false]</text>
<rect x="479.1" y="96.2" width="24.8" height="303.8" fill="#4c78a8" rx="2"/>
<rect x="503.9" y="88.5" width="24.8" height="311.5" fill="#f58518" rx="2"/>
<rect x="528.6" y="108.3" width="24.8" height="291.7" fill="#54a24b" rx="2"/>
<text class="small" x="516.2" y="520" text-anchor="end" transform="rotate(-35 516.2 520)">google/gemma-4-26B-A4B-it [thinking=false]</text>
<rect x="578.2" y="92.9" width="24.8" height="307.1" fill="#4c78a8" rx="2"/>
<rect x="603.0" y="75.3" width="24.8" height="324.7" fill="#f58518" rx="2"/>
<rect x="627.8" y="125.9" width="24.8" height="274.1" fill="#54a24b" rx="2"/>
<text class="small" x="615.4" y="520" text-anchor="end" transform="rotate(-35 615.4 520)">gpt-5-mini</text>
<rect x="677.4" y="89.6" width="24.8" height="310.4" fill="#4c78a8" rx="2"/>
<rect x="702.2" y="77.5" width="24.8" height="322.5" fill="#f58518" rx="2"/>
<rect x="727.0" y="128.1" width="24.8" height="271.9" fill="#54a24b" rx="2"/>
<text class="small" x="714.6" y="520" text-anchor="end" transform="rotate(-35 714.6 520)">gpt-5.4-mini</text>
<rect x="776.6" y="89.6" width="24.8" height="310.4" fill="#4c78a8" rx="2"/>
<rect x="801.4" y="77.5" width="24.8" height="322.5" fill="#f58518" rx="2"/>
<rect x="826.1" y="130.3" width="24.8" height="269.7" fill="#54a24b" rx="2"/>
<text class="small" x="813.8" y="520" text-anchor="end" transform="rotate(-35 813.8 520)">Qwen3.6-27B-FP8</text>
<rect x="875.7" y="99.5" width="24.8" height="300.5" fill="#4c78a8" rx="2"/>
<rect x="900.5" y="79.7" width="24.8" height="320.3" fill="#f58518" rx="2"/>
<rect x="925.3" y="131.4" width="24.8" height="268.6" fill="#54a24b" rx="2"/>
<text class="small" x="912.9" y="520" text-anchor="end" transform="rotate(-35 912.9 520)">gpt-5.4-nano</text>
<rect x="974.9" y="106.1" width="24.8" height="293.9" fill="#4c78a8" rx="2"/>
<rect x="999.7" y="79.7" width="24.8" height="320.3" fill="#f58518" rx="2"/>
<rect x="1024.5" y="130.3" width="24.8" height="269.7" fill="#54a24b" rx="2"/>
<text class="small" x="1012.1" y="520" text-anchor="end" transform="rotate(-35 1012.1 520)">Qwen3.6-35B-A3B-FP8</text>
<rect x="1074.1" y="129.2" width="24.8" height="270.8" fill="#4c78a8" rx="2"/>
<rect x="1098.9" y="81.9" width="24.8" height="318.1" fill="#f58518" rx="2"/>
<rect x="1123.6" y="114.9" width="24.8" height="285.1" fill="#54a24b" rx="2"/>
<text class="small" x="1111.2" y="520" text-anchor="end" transform="rotate(-35 1111.2 520)">Qwen3.6-35B-A3B-FP8 [thinking=false]</text>
<rect x="1173.2" y="112.7" width="24.8" height="287.3" fill="#4c78a8" rx="2"/>
<rect x="1198.0" y="123.7" width="24.8" height="276.3" fill="#f58518" rx="2"/>
<rect x="1222.8" y="146.9" width="24.8" height="253.1" fill="#54a24b" rx="2"/>
<text class="small" x="1210.4" y="520" text-anchor="end" transform="rotate(-35 1210.4 520)">gpt-5-nano</text>
<line class="axis" x1="70" y1="400" x2="1260" y2="400"/>
<rect x="980" y="60" width="14" height="14" fill="#4c78a8"/>
<text class="small" x="1002" y="72">kind 一致率</text>
<rect x="980" y="84" width="14" height="14" fill="#f58518"/>
<text class="small" x="1002" y="96">rag 距離スコア</text>
<rect x="980" y="108" width="14" height="14" fill="#54a24b"/>
<text class="small" x="1002" y="120">detail 距離スコア</text>
</svg>