<svg xmlns="http://www.w3.org/2000/svg" width="860" height="360" viewBox="0 0 860 360">
<rect width="100%" height="100%" fill="white"/>
<text x="430.0" y="24" font-size="18" text-anchor="middle" font-weight="bold" fill="#111" font-family="Helvetica, Arial, sans-serif">Detail Level Distribution</text>
<text x="90" y="61" font-size="13" text-anchor="end" font-weight="bold" fill="#111" font-family="Helvetica, Arial, sans-serif">gpt-5-nano</text>
<rect x="100.0" y="40" width="61.1" height="32" fill="#c7c7c7"/>
<text x="130.56603773584905" y="61" font-size="12" text-anchor="middle" font-weight="normal" fill="#111" font-family="Helvetica, Arial, sans-serif">9</text>
<rect x="161.1" y="40" width="237.7" height="32" fill="#8dd3c7"/>
<text x="280.0" y="61" font-size="12" text-anchor="middle" font-weight="normal" fill="#111" font-family="Helvetica, Arial, sans-serif">35</text>
<rect x="398.9" y="40" width="0.0" height="32" fill="#80b1d3"/>
<rect x="398.9" y="40" width="421.1" height="32" fill="#fb8072"/>
<text x="609.4339622641509" y="61" font-size="12" text-anchor="middle" font-weight="normal" fill="#111" font-family="Helvetica, Arial, sans-serif">62</text>
<text x="90" y="111" font-size="13" text-anchor="end" font-weight="bold" fill="#111" font-family="Helvetica, Arial, sans-serif">gpt-5-mini</text>
<rect x="100.0" y="90" width="149.4" height="32" fill="#c7c7c7"/>
<text x="174.7169811320755" y="111" font-size="12" text-anchor="middle" font-weight="normal" fill="#111" font-family="Helvetica, Arial, sans-serif">22</text>
<rect x="249.4" y="90" width="122.3" height="32" fill="#8dd3c7"/>
<text x="310.5660377358491" y="111" font-size="12" text-anchor="middle" font-weight="normal" fill="#111" font-family="Helvetica, Arial, sans-serif">18</text>
<rect x="371.7" y="90" width="6.8" height="32" fill="#80b1d3"/>
<text x="375.09433962264154" y="111" font-size="12" text-anchor="middle" font-weight="normal" fill="#111" font-family="Helvetica, Arial, sans-serif">1</text>
<rect x="378.5" y="90" width="441.5" height="32" fill="#fb8072"/>
<text x="599.2452830188679" y="111" font-size="12" text-anchor="middle" font-weight="normal" fill="#111" font-family="Helvetica, Arial, sans-serif">65</text>
<text x="90" y="161" font-size="13" text-anchor="end" font-weight="bold" fill="#111" font-family="Helvetica, Arial, sans-serif">gpt-5</text>
<rect x="100.0" y="140" width="217.4" height="32" fill="#c7c7c7"/>
<text x="208.67924528301887" y="161" font-size="12" text-anchor="middle" font-weight="normal" fill="#111" font-family="Helvetica, Arial, sans-serif">32</text>
<rect x="317.4" y="140" width="40.8" height="32" fill="#8dd3c7"/>
<text x="337.7358490566038" y="161" font-size="12" text-anchor="middle" font-weight="normal" fill="#111" font-family="Helvetica, Arial, sans-serif">6</text>
<rect x="358.1" y="140" width="40.8" height="32" fill="#80b1d3"/>
<text x="378.4905660377359" y="161" font-size="12" text-anchor="middle" font-weight="normal" fill="#111" font-family="Helvetica, Arial, sans-serif">6</text>
<rect x="398.9" y="140" width="421.1" height="32" fill="#fb8072"/>
<text x="609.433962264151" y="161" font-size="12" text-anchor="middle" font-weight="normal" fill="#111" font-family="Helvetica, Arial, sans-serif">62</text>
<text x="90" y="211" font-size="13" text-anchor="end" font-weight="bold" fill="#111" font-family="Helvetica, Arial, sans-serif">gpt-5.2</text>
<rect x="100.0" y="190" width="176.6" height="32" fill="#c7c7c7"/>
<text x="188.30188679245282" y="211" font-size="12" text-anchor="middle" font-weight="normal" fill="#111" font-family="Helvetica, Arial, sans-serif">26</text>
<rect x="276.6" y="190" width="142.6" height="32" fill="#8dd3c7"/>
<text x="347.92452830188677" y="211" font-size="12" text-anchor="middle" font-weight="normal" fill="#111" font-family="Helvetica, Arial, sans-serif">21</text>
<rect x="419.2" y="190" width="88.3" height="32" fill="#80b1d3"/>
<text x="463.3962264150943" y="211" font-size="12" text-anchor="middle" font-weight="normal" fill="#111" font-family="Helvetica, Arial, sans-serif">13</text>
<rect x="507.5" y="190" width="312.5" height="32" fill="#fb8072"/>
<text x="663.7735849056603" y="211" font-size="12" text-anchor="middle" font-weight="normal" fill="#111" font-family="Helvetica, Arial, sans-serif">46</text>
<text x="90" y="261" font-size="13" text-anchor="end" font-weight="bold" fill="#111" font-family="Helvetica, Arial, sans-serif">gpt-5.4</text>
<rect x="100.0" y="240" width="169.8" height="32" fill="#c7c7c7"/>
<text x="184.9056603773585" y="261" font-size="12" text-anchor="middle" font-weight="normal" fill="#111" font-family="Helvetica, Arial, sans-serif">25</text>
<rect x="269.8" y="240" width="115.5" height="32" fill="#8dd3c7"/>
<text x="327.54716981132077" y="261" font-size="12" text-anchor="middle" font-weight="normal" fill="#111" font-family="Helvetica, Arial, sans-serif">17</text>
<rect x="385.3" y="240" width="190.2" height="32" fill="#80b1d3"/>
<text x="480.37735849056605" y="261" font-size="12" text-anchor="middle" font-weight="normal" fill="#111" font-family="Helvetica, Arial, sans-serif">28</text>
<rect x="575.5" y="240" width="244.5" height="32" fill="#fb8072"/>
<text x="697.7358490566038" y="261" font-size="12" text-anchor="middle" font-weight="normal" fill="#111" font-family="Helvetica, Arial, sans-serif">36</text>
<rect x="100" y="40" width="720" height="232" fill="none" stroke="#333"/>
<rect x="100" y="320" width="14" height="14" fill="#c7c7c7"/>
<text x="120" y="332" font-size="12" text-anchor="start" font-weight="normal" fill="#111" font-family="Helvetica, Arial, sans-serif">skip</text>
<rect x="220" y="320" width="14" height="14" fill="#8dd3c7"/>
<text x="240" y="332" font-size="12" text-anchor="start" font-weight="normal" fill="#111" font-family="Helvetica, Arial, sans-serif">short</text>
<rect x="340" y="320" width="14" height="14" fill="#80b1d3"/>
<text x="360" y="332" font-size="12" text-anchor="start" font-weight="normal" fill="#111" font-family="Helvetica, Arial, sans-serif">long</text>
<rect x="460" y="320" width="14" height="14" fill="#fb8072"/>
<text x="480" y="332" font-size="12" text-anchor="start" font-weight="normal" fill="#111" font-family="Helvetica, Arial, sans-serif">extract_text</text>
</svg>